<svg width="5456" height="1161" viewBox="0 0 5456 1161" fill="none" xmlns="http://www.w3.org/2000/svg">
<path d="M234.196 1160.13C104.745 1160.13 0 1055.37 0 925.906C0 796.438 104.745 691.68 234.196 691.68C363.648 691.68 468.392 796.438 468.392 925.906C468.392 1055.37 363.648 1160.13 234.196 1160.13Z" fill="white"/>
<path fill-rule="evenodd" clip-rule="evenodd" d="M3402.29 305.592H3353.39L3337.95 243.818H3250.45L3235.01 305.592H3188.68L3263.32 50.7746H3330.23L3402.29 305.592ZM3294.2 81.6615L3260.74 202.635H3325.08L3294.2 81.6615Z" fill="white"/>
<path d="M3502.66 151.155V303.016H3456.33V151.155H3420.3V120.268L3456.33 115.121V102.251C3456.33 81.6597 3464.06 63.6423 3474.35 50.7728C3484.64 37.9032 3505.23 32.7554 3525.82 32.7554C3530.97 32.7554 3538.69 32.7554 3543.84 35.3293C3548.98 35.3293 3556.7 37.9032 3561.85 40.4771L3554.13 76.5119C3548.98 76.5119 3546.41 73.938 3541.26 73.938C3538.69 73.938 3533.54 73.938 3528.39 73.938C3518.1 73.938 3510.38 76.5119 3507.81 81.6597C3502.66 86.8075 3500.09 94.5293 3500.09 107.399V117.694H3551.56V156.303L3502.66 151.155Z" fill="white"/>
<path d="M3649.34 166.601V303.018H3603.02V107.401H3646.77V133.14C3657.06 122.844 3667.36 115.122 3680.23 109.975C3693.09 104.827 3703.39 102.253 3716.26 102.253V148.583C3700.81 148.583 3690.52 151.157 3680.23 153.731C3669.93 156.305 3659.64 161.453 3649.34 166.601Z" fill="white"/>
<path d="M3808.93 55.9212C3808.93 63.6429 3806.35 71.3647 3801.2 73.9386C3796.06 76.5125 3790.91 81.6603 3780.62 81.6603C3772.89 81.6603 3765.17 79.0864 3760.03 73.9386C3754.88 68.7907 3752.31 63.6429 3752.31 55.9212C3752.31 48.1994 3754.88 40.4777 3760.03 37.9038C3765.17 32.756 3770.32 30.1821 3780.62 30.1821C3788.34 30.1821 3796.06 32.756 3801.2 37.9038C3806.35 43.0516 3808.93 48.1994 3808.93 55.9212ZM3760.03 107.399H3806.35V305.591H3760.03V107.399Z" fill="white"/>
<path d="M3937.58 308.166C3906.7 308.166 3883.54 300.444 3868.1 282.427C3852.66 266.983 3847.51 241.244 3847.51 205.209C3847.51 171.748 3855.23 146.009 3870.67 127.992C3886.11 109.975 3909.28 102.253 3937.58 102.253C3947.88 102.253 3958.17 102.253 3968.47 104.827C3978.76 107.401 3986.48 109.975 3996.78 115.122L3981.34 151.157C3973.61 148.583 3965.89 146.009 3960.75 143.435C3953.03 140.862 3947.88 140.862 3942.73 140.862C3927.29 140.862 3914.42 146.009 3906.7 156.305C3898.98 166.601 3896.41 182.044 3896.41 202.635C3896.41 223.227 3898.98 238.67 3906.7 248.966C3914.42 259.262 3927.29 261.835 3942.73 261.835C3950.45 261.835 3955.6 261.835 3963.32 259.262C3971.04 256.688 3976.19 256.688 3983.91 251.54L3996.78 287.575C3989.06 292.722 3978.76 295.296 3968.47 297.87C3958.17 308.166 3947.88 308.166 3937.58 308.166Z" fill="white"/>
<path fill-rule="evenodd" clip-rule="evenodd" d="M4189.81 176.896V303.018H4146.06V282.427C4138.34 290.148 4128.04 297.87 4120.32 300.444C4110.03 305.592 4099.74 308.166 4089.44 308.166C4071.43 308.166 4055.98 303.018 4045.69 292.722C4035.4 282.427 4030.25 266.983 4030.25 251.54C4030.25 233.522 4037.97 218.079 4048.26 207.783C4058.56 197.488 4079.15 192.34 4099.74 192.34H4143.49V179.47C4143.49 166.601 4140.91 158.879 4135.77 151.157C4130.62 146.009 4120.32 143.435 4107.46 143.435C4099.74 143.435 4089.44 143.435 4081.72 146.009C4071.43 148.583 4061.13 153.731 4048.26 158.879L4032.82 122.844C4048.26 115.122 4061.13 109.975 4074 107.401C4086.87 104.827 4099.74 102.253 4112.6 102.253C4138.34 102.253 4156.35 107.401 4169.22 120.27C4184.66 135.714 4189.81 153.731 4189.81 176.896ZM4074 248.966C4074 256.688 4076.57 264.409 4081.72 266.983C4086.87 272.131 4092.01 274.705 4102.31 274.705C4110.03 274.705 4117.75 272.131 4122.9 269.557C4130.62 266.983 4138.34 261.835 4143.49 254.114V225.801H4102.31C4092.01 225.801 4084.29 228.375 4081.72 230.948C4079.15 233.522 4074 241.244 4074 248.966Z" fill="white"/>
<path d="M4282.46 166.601V305.592H4236.14V107.401H4279.89V130.566C4290.18 120.27 4300.47 112.548 4310.77 109.975C4321.06 104.827 4331.36 102.253 4341.65 102.253C4359.67 102.253 4375.11 107.401 4385.4 120.27C4395.7 130.566 4400.84 148.583 4400.84 169.175V303.018H4354.52V176.896C4354.52 166.601 4351.95 158.879 4346.8 153.731C4341.65 148.583 4336.51 146.009 4326.21 146.009C4318.49 146.009 4310.77 148.583 4303.05 151.157C4300.47 156.305 4292.75 158.879 4282.46 166.601Z" fill="white"/>
<path d="M3253.02 514.078V707.122H3209.27V452.304H3265.88L3330.22 591.296L3391.99 452.304H3446.03V707.122H3402.28V514.078L3345.67 635.052H3307.06L3253.02 514.078Z" fill="white"/>
<path fill-rule="evenodd" clip-rule="evenodd" d="M3662.23 578.425V704.547H3618.47V683.956C3610.75 691.678 3600.46 699.399 3592.74 701.973C3582.44 707.121 3572.15 709.695 3561.86 709.695C3543.84 709.695 3528.4 704.547 3518.1 694.252C3507.81 683.956 3502.66 668.512 3502.66 653.069C3502.66 635.052 3510.38 619.608 3520.68 609.312C3533.55 599.017 3551.56 593.869 3572.15 593.869H3615.9V583.573C3615.9 570.704 3613.33 562.982 3608.18 555.26C3603.03 547.539 3592.74 547.539 3579.87 547.539C3572.15 547.539 3561.86 547.539 3554.14 550.112C3543.84 552.686 3533.55 557.834 3520.68 562.982L3505.24 526.947C3520.68 519.225 3533.55 514.078 3546.41 511.504C3559.28 508.93 3572.15 506.356 3585.02 506.356C3610.75 506.356 3628.77 511.504 3641.64 524.373C3654.5 537.243 3662.23 555.26 3662.23 578.425ZM3543.84 650.495C3543.84 658.217 3546.41 665.939 3551.56 668.512C3556.71 673.66 3561.86 676.234 3572.15 676.234C3579.87 676.234 3587.59 673.66 3592.74 671.086C3600.46 668.512 3608.18 663.365 3613.33 655.643V627.33H3572.15C3561.86 627.33 3554.14 629.904 3551.56 632.478C3546.41 635.052 3543.84 642.773 3543.84 650.495Z" fill="white"/>
<path d="M3765.15 568.13V707.122H3718.83V508.93H3762.58V532.096C3772.88 521.8 3783.17 514.078 3793.46 511.504C3803.76 506.357 3814.05 503.783 3824.35 503.783C3842.36 503.783 3857.8 508.93 3868.1 521.8C3878.39 534.67 3883.54 550.113 3883.54 570.704V704.548H3837.22V575.852C3837.22 565.557 3834.64 557.835 3829.49 552.687C3824.35 547.539 3819.2 544.965 3808.91 544.965C3801.18 544.965 3793.46 547.539 3785.74 550.113C3783.17 557.835 3775.45 560.409 3765.15 568.13Z" fill="white"/>
<path fill-rule="evenodd" clip-rule="evenodd" d="M4094.58 578.425V704.547H4050.83V683.956C4043.11 691.678 4032.82 699.399 4025.1 701.973C4014.8 707.121 4004.51 709.695 3994.21 709.695C3976.2 709.695 3960.76 704.547 3950.46 694.252C3940.17 683.956 3935.02 668.512 3935.02 653.069C3935.02 635.052 3942.74 619.608 3953.04 609.312C3965.9 599.017 3983.92 593.869 4004.51 593.869H4048.26V583.573C4048.26 570.704 4045.69 562.982 4040.54 555.26C4035.39 550.112 4025.1 547.539 4012.23 547.539C4004.51 547.539 3994.21 547.539 3986.49 550.112C3976.2 552.686 3965.9 557.834 3953.04 562.982L3937.59 526.947C3953.04 519.225 3965.9 514.078 3978.77 511.504C3991.64 508.93 4004.51 506.356 4017.38 506.356C4043.11 506.356 4061.13 511.504 4073.99 524.373C4089.44 537.243 4094.58 555.26 4094.58 578.425ZM3978.77 650.495C3978.77 658.217 3981.35 665.939 3986.49 668.512C3991.64 673.66 3996.79 676.234 4007.08 676.234C4014.8 676.234 4022.52 673.66 4027.67 671.086C4035.39 668.512 4043.11 663.365 4048.26 655.643V627.33H4007.08C3996.79 627.33 3989.07 629.904 3986.49 632.478C3981.35 635.052 3978.77 642.773 3978.77 650.495Z" fill="white"/>
<path fill-rule="evenodd" clip-rule="evenodd" d="M4305.61 570.704C4305.61 591.295 4297.89 606.739 4285.02 619.608C4272.16 629.904 4251.57 637.626 4228.41 637.626C4225.83 637.626 4220.68 637.626 4218.11 637.626C4215.54 637.626 4212.96 637.626 4207.82 637.626C4200.1 640.199 4197.52 642.773 4192.37 645.347C4189.8 647.921 4187.23 650.495 4187.23 655.643C4187.23 658.217 4189.8 660.791 4192.37 663.365C4194.95 665.939 4200.1 665.939 4205.24 665.939H4256.71C4277.3 665.939 4292.74 671.086 4303.04 678.808C4313.33 689.104 4321.05 699.399 4321.05 717.417C4321.05 738.008 4310.76 756.025 4292.74 768.895C4274.73 781.765 4248.99 789.486 4220.68 789.486C4194.95 789.486 4174.36 784.339 4158.92 774.043C4143.48 763.747 4135.76 750.878 4135.76 735.434C4135.76 727.712 4138.33 719.991 4143.48 712.269C4148.62 704.547 4156.34 699.399 4166.64 696.826C4158.92 694.252 4156.34 689.104 4151.2 681.382C4146.05 673.66 4146.05 671.086 4146.05 663.365C4146.05 655.643 4148.62 647.921 4153.77 640.199C4158.92 632.478 4166.64 629.904 4174.36 624.756C4166.64 619.608 4158.92 611.886 4156.34 604.165C4151.2 596.443 4148.62 586.147 4148.62 573.278C4148.62 552.686 4156.34 537.243 4169.21 524.373C4182.08 511.504 4202.67 506.356 4225.83 506.356C4233.55 506.356 4238.7 506.356 4243.85 508.93C4248.99 508.93 4254.14 511.504 4261.86 514.078L4318.48 493.486L4331.35 532.095L4295.32 542.391C4297.89 547.539 4303.04 552.686 4303.04 557.834C4303.04 557.834 4305.61 565.556 4305.61 570.704ZM4184.65 714.843C4182.08 717.417 4182.08 722.565 4182.08 727.712C4182.08 735.434 4184.65 743.156 4192.37 745.73C4200.1 750.878 4210.39 753.452 4223.26 753.452C4238.7 753.452 4254.14 750.878 4261.86 745.73C4272.16 740.582 4277.3 732.86 4277.3 725.139C4277.3 719.991 4274.73 714.843 4272.16 712.269C4269.58 709.695 4261.86 707.121 4254.14 707.121C4251.57 707.121 4200.1 707.121 4197.52 707.121C4197.52 704.547 4197.52 704.547 4194.95 704.547C4189.8 707.121 4184.65 709.695 4184.65 714.843ZM4194.95 570.704C4194.95 580.999 4197.52 588.721 4202.67 593.869C4207.82 599.017 4218.11 601.591 4228.41 601.591C4238.7 601.591 4248.99 599.017 4254.14 593.869C4259.29 588.721 4261.86 580.999 4261.86 570.704C4261.86 560.408 4259.29 552.686 4254.14 547.539C4248.99 542.391 4238.7 539.817 4228.41 539.817C4218.11 539.817 4207.82 542.391 4202.67 547.539C4197.52 552.686 4194.95 560.408 4194.95 570.704Z" fill="white"/>
<path fill-rule="evenodd" clip-rule="evenodd" d="M4503.78 658.217L4519.22 694.252C4508.93 699.399 4498.63 704.547 4485.76 707.121C4472.9 709.695 4460.03 712.269 4449.73 712.269C4416.28 712.269 4393.11 704.547 4377.67 686.53C4362.23 668.513 4354.51 645.347 4354.51 611.886C4354.51 578.426 4362.23 555.26 4377.67 534.669C4393.11 514.078 4416.28 506.356 4442.01 506.356C4467.75 506.356 4485.76 514.078 4501.21 529.521C4516.65 544.965 4521.79 565.556 4521.79 593.869C4521.79 596.443 4521.79 599.017 4521.79 601.591C4521.79 604.165 4521.79 606.739 4521.79 609.312L4508.93 624.756H4400.84C4400.84 640.199 4405.98 653.069 4416.28 660.791C4424 668.513 4436.87 673.66 4452.31 673.66C4460.03 673.66 4470.32 673.66 4478.04 671.086C4485.76 665.939 4496.06 663.365 4503.78 658.217ZM4413.7 555.26C4405.98 562.982 4403.41 573.278 4400.84 588.721H4478.04C4478.04 573.278 4475.47 562.982 4467.75 555.26C4462.6 547.539 4454.88 544.965 4442.01 544.965C4429.15 544.965 4421.42 547.539 4413.7 555.26Z" fill="white"/>
<path d="M4614.44 568.13V707.122H4568.11V508.93H4611.86V532.096C4622.16 521.8 4632.45 514.078 4642.75 511.504C4653.04 506.357 4660.76 503.783 4671.06 503.783C4683.92 503.783 4694.22 506.357 4701.94 511.504C4709.66 516.652 4717.38 524.374 4722.53 534.67C4732.82 524.374 4745.69 516.652 4755.98 511.504C4766.28 506.357 4776.57 503.783 4789.44 503.783C4807.46 503.783 4822.9 508.93 4833.19 521.8C4843.49 532.096 4848.63 550.113 4848.63 570.704V704.548H4802.31V575.852C4802.31 565.557 4799.74 557.835 4797.16 552.687C4794.59 547.539 4786.87 544.965 4779.15 544.965C4771.43 544.965 4766.28 547.539 4758.56 550.113C4750.84 552.687 4743.12 557.835 4735.4 565.557V704.548H4683.92V575.852C4683.92 565.557 4681.35 557.835 4678.78 552.687C4676.2 547.539 4668.48 544.965 4660.76 544.965C4653.04 544.965 4647.89 547.539 4640.17 550.113C4629.88 557.835 4622.16 560.409 4614.44 568.13Z" fill="white"/>
<path fill-rule="evenodd" clip-rule="evenodd" d="M5041.67 658.217L5057.11 694.252C5046.81 699.399 5036.52 704.547 5023.65 707.121C5010.78 709.695 4997.92 712.269 4987.62 712.269C4954.17 712.269 4931 704.547 4915.56 686.53C4900.12 668.513 4892.4 645.347 4892.4 611.886C4892.4 578.426 4900.12 555.26 4915.56 534.669C4931 514.078 4954.17 506.356 4979.9 506.356C5005.64 506.356 5023.65 514.078 5039.09 529.521C5054.54 544.965 5059.68 565.556 5059.68 593.869C5059.68 596.443 5059.68 599.017 5059.68 601.591C5059.68 604.165 5059.68 606.739 5059.68 609.312L5046.81 624.756H4938.72C4938.72 640.199 4943.87 653.069 4954.17 660.791C4961.89 668.513 4974.75 673.66 4990.2 673.66C4997.92 673.66 5008.21 673.66 5015.93 671.086C5023.65 665.939 5031.37 663.365 5041.67 658.217ZM4949.02 555.26C4941.3 562.982 4938.72 573.278 4936.15 588.721H5013.36C5013.36 573.278 5010.78 562.982 5003.06 555.26C5000.49 547.539 4990.2 544.965 4977.33 544.965C4964.46 544.965 4956.74 547.539 4949.02 555.26Z" fill="white"/>
<path d="M5152.33 568.13V707.122H5106V508.93H5149.75V532.096C5160.05 521.8 5170.34 514.078 5180.64 511.504C5190.93 506.357 5201.22 503.783 5211.52 503.783C5229.53 503.783 5244.98 508.93 5255.27 521.8C5265.56 532.096 5270.71 550.113 5270.71 570.704V704.548H5224.39V575.852C5224.39 565.557 5221.81 557.835 5216.67 552.687C5211.52 547.539 5206.37 544.965 5196.08 544.965C5188.36 544.965 5180.64 547.539 5172.92 550.113C5167.77 557.835 5160.05 560.409 5152.33 568.13Z" fill="white"/>
<path d="M5389.11 508.929H5448.3V547.538H5389.11V640.199C5389.11 650.495 5391.68 655.642 5394.25 660.79C5396.83 663.364 5404.55 665.938 5412.27 665.938C5417.42 665.938 5422.56 665.938 5427.71 663.364C5432.86 663.364 5438 660.79 5443.15 658.216L5456.02 694.251C5448.3 699.399 5440.58 701.973 5432.86 704.547C5425.14 707.121 5414.84 707.121 5407.12 707.121C5386.53 707.121 5371.09 701.973 5360.8 689.103C5350.5 678.808 5345.35 660.79 5345.35 640.199V544.964H5309.32V511.503L5347.93 506.355L5358.22 457.451H5391.68L5389.11 508.929Z" fill="white"/>
<path d="M3250.44 853.834V1108.65H3222.13V853.834H3250.44Z" fill="white"/>
<path d="M3353.39 964.514V1108.65H3325.08V918.183H3353.39V943.922C3366.25 933.627 3376.55 925.905 3386.84 920.757C3397.14 915.609 3407.43 913.035 3420.3 913.035C3438.31 913.035 3453.76 918.183 3461.48 928.479C3471.77 938.775 3476.92 954.218 3476.92 974.809V1106.08H3448.61V974.809C3448.61 961.94 3446.03 951.644 3440.89 946.496C3435.74 938.775 3425.45 936.201 3415.15 936.201C3404.86 936.201 3397.14 938.774 3386.84 943.922C3373.97 949.07 3363.68 956.792 3353.39 964.514Z" fill="white"/>
<path d="M3657.06 1059.75C3657.06 1075.19 3651.92 1088.06 3639.05 1098.36C3628.75 1108.65 3610.74 1113.8 3592.72 1113.8C3582.43 1113.8 3569.56 1111.23 3559.27 1108.65C3546.4 1106.08 3536.11 1100.93 3525.81 1093.21L3536.11 1070.04C3546.4 1077.77 3554.12 1080.34 3564.42 1085.49C3574.71 1088.06 3582.43 1090.63 3592.72 1090.63C3603.02 1090.63 3613.31 1088.06 3618.46 1082.91C3623.61 1077.77 3628.75 1072.62 3628.75 1062.32C3628.75 1054.6 3626.18 1049.45 3621.03 1044.3C3615.89 1039.16 3605.59 1034.01 3587.58 1026.29C3564.41 1015.99 3551.55 1008.27 3543.83 1000.55C3536.11 992.826 3533.53 982.53 3533.53 969.661C3533.53 954.217 3538.68 941.348 3551.55 931.052C3561.84 920.757 3577.28 915.609 3597.87 915.609C3608.17 915.609 3618.46 918.183 3628.75 920.757C3639.05 923.331 3649.34 928.478 3657.06 933.626L3644.2 956.791C3636.48 951.643 3628.75 949.07 3618.46 946.496C3610.74 943.922 3603.02 943.922 3595.3 943.922C3585 943.922 3574.71 946.496 3569.56 951.644C3564.41 956.791 3559.27 961.939 3559.27 969.661C3559.27 977.383 3561.84 982.53 3566.99 987.678C3572.14 992.826 3582.43 997.974 3600.45 1005.7C3623.61 1015.99 3639.05 1023.71 3644.2 1031.43C3651.92 1036.58 3657.06 1046.88 3657.06 1059.75Z" fill="white"/>
<path d="M3749.72 918.181H3814.06V941.347H3749.72V1054.6C3749.72 1064.89 3752.29 1075.19 3757.44 1080.34C3762.59 1085.49 3767.73 1088.06 3778.03 1088.06C3783.17 1088.06 3788.32 1088.06 3793.47 1085.49C3798.62 1082.91 3803.76 1082.91 3811.48 1077.76L3821.78 1098.36C3814.06 1103.5 3806.34 1106.08 3798.62 1108.65C3790.9 1111.22 3783.17 1111.22 3775.45 1111.22C3757.44 1111.22 3744.57 1106.08 3734.28 1095.78C3723.98 1085.49 3721.41 1072.62 3721.41 1052.02V941.347H3685.38V923.329L3721.41 918.181L3729.13 869.277H3749.72V918.181Z" fill="white"/>
<path d="M3899 864.129C3899 869.276 3896.42 874.424 3893.85 876.998C3891.27 879.572 3886.13 882.146 3880.98 882.146C3875.83 882.146 3870.69 879.572 3868.11 876.998C3865.54 874.424 3862.97 869.276 3862.97 864.129C3862.97 858.981 3865.54 853.833 3868.11 851.259C3870.69 848.685 3875.83 846.111 3880.98 846.111C3886.13 846.111 3891.27 848.685 3893.85 851.259C3896.42 853.833 3899 858.981 3899 864.129ZM3865.54 918.181H3893.85V1108.65H3865.54V918.181Z" fill="white"/>
<path d="M4001.92 918.181H4066.26V941.347H4001.92V1054.6C4001.92 1064.89 4004.5 1075.19 4009.65 1080.34C4014.79 1085.49 4019.94 1088.06 4030.23 1088.06C4035.38 1088.06 4040.53 1088.06 4045.68 1085.49C4050.82 1082.91 4055.97 1082.91 4063.69 1077.76L4073.99 1098.36C4066.26 1103.5 4058.54 1106.08 4050.82 1108.65C4043.1 1111.22 4035.38 1111.22 4027.66 1111.22C4009.65 1111.22 3996.78 1106.08 3986.48 1095.78C3976.19 1085.49 3973.61 1072.62 3973.61 1052.02V941.347H3937.58V923.329L3973.61 918.181L3981.34 869.277H4001.92V918.181Z" fill="white"/>
<path d="M4117.74 1046.88V915.609H4146.05V1046.88C4146.05 1059.75 4148.62 1070.04 4153.77 1075.19C4158.91 1082.91 4169.21 1085.49 4179.5 1085.49C4187.22 1085.49 4197.52 1082.91 4207.81 1077.77C4218.11 1072.62 4228.4 1067.47 4238.69 1059.75V915.609H4267V1106.08H4238.69V1080.34C4225.83 1090.63 4215.53 1098.36 4205.24 1100.93C4194.94 1106.08 4184.65 1108.65 4174.35 1108.65C4156.34 1108.65 4140.9 1103.5 4133.18 1093.21C4122.88 1085.49 4117.74 1070.04 4117.74 1046.88Z" fill="white"/>
<path d="M4375.09 918.181H4439.43V941.347H4375.09V1054.6C4375.09 1064.89 4377.67 1075.19 4382.81 1080.34C4387.96 1085.49 4393.11 1088.06 4403.4 1088.06C4408.55 1088.06 4413.7 1088.06 4418.85 1085.49C4423.99 1082.91 4429.14 1082.91 4436.86 1077.76L4447.15 1098.36C4439.43 1103.5 4431.71 1106.08 4423.99 1108.65C4416.27 1111.22 4408.55 1111.22 4400.83 1111.22C4382.81 1111.22 4369.95 1106.08 4359.65 1095.78C4349.36 1085.49 4346.78 1072.62 4346.78 1052.02V941.347H4310.75V923.329L4346.78 918.181L4354.51 869.277H4375.09V918.181Z" fill="white"/>
<path fill-rule="evenodd" clip-rule="evenodd" d="M4622.16 1072.62L4632.45 1093.21C4624.73 1098.35 4614.44 1103.5 4601.57 1106.08C4591.28 1108.65 4578.41 1111.22 4565.54 1111.22C4537.23 1111.22 4514.07 1103.5 4501.2 1085.49C4488.33 1067.47 4478.04 1044.3 4478.04 1013.42C4478.04 979.955 4485.76 956.79 4498.63 938.772C4514.07 920.755 4532.08 910.459 4557.82 910.459C4580.98 910.459 4599 918.181 4611.86 931.05C4624.73 946.494 4632.45 967.085 4632.45 992.824C4632.45 995.398 4632.45 1005.69 4632.45 1008.27L4624.73 1018.56H4506.35C4506.35 1041.73 4511.49 1057.17 4521.79 1067.47C4532.08 1077.76 4547.52 1082.91 4565.54 1082.91C4575.83 1082.91 4583.55 1082.91 4593.85 1080.34C4604.14 1080.34 4614.44 1077.76 4622.16 1072.62ZM4524.36 954.216C4516.64 964.511 4511.49 979.955 4508.92 1000.55H4609.29C4609.29 979.955 4606.72 964.511 4599 956.789C4588.7 941.346 4575.83 938.772 4560.39 938.772C4544.95 938.772 4532.08 943.92 4524.36 954.216Z" fill="white"/>
<path d="M2465 236.095V923.33C2465 1052.03 2570.52 1157.56 2699.2 1157.56C2827.88 1157.56 2933.39 1052.03 2933.39 923.33V380.234" fill="white"/>
<path d="M298.526 323.609L581.62 1013.42C630.519 1131.82 766.919 1191.02 887.877 1142.11C1006.26 1093.21 1065.45 956.791 1016.56 835.817L823.537 367.365" fill="white"/>
<path d="M733.465 146.01C684.567 27.6096 548.167 -31.5904 427.208 17.3139C306.25 66.2183 249.631 202.636 298.529 323.61C347.427 444.583 483.827 501.21 604.786 452.305C666.552 426.566 820.967 364.792 869.865 483.192L733.465 146.01Z" fill="white"/>
<path d="M2318.79 375.087C2308.5 375.087 2280.19 387.957 2259.6 408.548L1937.9 496.061V923.33C1937.9 1052.03 2043.42 1157.56 2172.1 1157.56C2300.78 1157.56 2406.3 1052.03 2406.3 923.33V516.652C2406.3 467.748 2365.12 375.087 2318.79 375.087Z" fill="white"/>
<path d="M1165.84 385.382C1119.52 385.382 1078.34 346.773 1078.34 395.678V923.33C1078.34 1052.03 1183.86 1157.56 1312.54 1157.56C1441.22 1157.56 1546.73 1052.03 1546.73 923.33V681.382L1225.04 375.086C1204.45 354.495 1176.14 385.382 1165.84 385.382Z" fill="white"/>
<path d="M1078.34 550.114C1078.34 501.21 1119.52 462.601 1165.84 462.601C1176.14 462.601 1204.45 465.175 1225.04 485.766L1546.73 835.818L1564.75 853.836C1572.47 861.558 1577.62 869.279 1585.34 874.427C1626.52 913.036 1680.56 933.627 1732.03 936.201H1752.62C1806.67 933.627 1858.14 913.036 1899.32 874.427C1907.04 866.705 1914.76 858.984 1919.9 853.836L1937.92 835.818L2259.62 485.766C2280.21 465.175 2308.51 462.601 2318.81 462.601C2365.13 462.601 2406.31 498.636 2406.31 550.114V236.097C2406.31 171.749 2380.58 109.975 2331.68 63.6446C2236.45 -23.8685 2087.19 -16.1468 2002.26 79.088L1744.9 359.645L1487.54 79.088C1400.04 -16.1468 1253.35 -23.8685 1158.12 63.6446C1106.65 109.975 1080.92 174.323 1083.49 236.097L1078.34 550.114Z" fill="white"/>
<path d="M2699.2 1.86962C2570.52 1.86962 2465 107.399 2465 236.095C2465 364.791 2570.52 470.322 2699.2 470.322C2766.11 470.322 2933.39 475.47 2933.39 599.018V236.096C2933.39 104.826 2827.88 1.86962 2699.2 1.86962Z" fill="white"/>
</svg>
